<?xml version="1.0" encoding="utf-8"?>
<!-- Generator: Adobe Illustrator 25.2.1, SVG Export Plug-In . SVG Version: 6.00 Build 0)  -->
<svg version="1.1" id="Layer_1" xmlns="http://www.w3.org/2000/svg" xmlns:xlink="http://www.w3.org/1999/xlink" x="0px" y="0px"
	 viewBox="0 0 1400 600" style="enable-background:new 0 0 1400 600;" xml:space="preserve">
<style type="text/css">
	.st0{fill-rule:evenodd;clip-rule:evenodd;fill:#DA752E;}
	.st1{fill-rule:evenodd;clip-rule:evenodd;fill:#0292D3;}
	.st2{fill:#FFFFFF;}
	.st3{font-family:'Geometos';}
	.st4{font-size:109.3736px;}
	.st5{font-family:'AvenirNextLTPro-Regular';}
	.st6{font-size:95.7019px;}
	.st7{letter-spacing:19;}
</style>
<g>
	<g>
		<path class="st0" d="M204.3,277l3,0.8l-29.3,112c-21.5-23.7-34.7-55.2-34.7-89.8c0-14.5,2.3-28.4,6.6-41.5
			c17.9,0.5,35.8,2.3,53.4,5.2l-2,8.1C200.7,274.1,202.1,276.4,204.3,277z"/>
		<path class="st1" d="M402.4,299.5l7.2-4.3l1.1,1.8C409,224.6,349.8,166.4,277,166.4c-47.3,0-88.9,24.6-112.6,61.7
			c91.3-5.8,186.3,41.7,226.4,127.8c-35.2-34.8-79.9-61.1-128.9-77.5l1.5-23.5l-5.6,22.2l0,0l-2.2,8.6c-0.6,2.3-2.9,3.7-5.2,3.1
			l-3-0.8l-33.9,129.7c18.9,10.2,40.6,16.1,63.6,16.1c48.2,0,90.4-25.5,113.9-63.7h-2.3v-7.8h6.7c1.7-3.2,3.2-6.5,4.6-9.8l-3,1.8
			l-3.5-5.9l5.9-3.5l2.2,3.7c2.6-6.7,4.7-13.7,6.2-20.8l-6.9,4.1l-7-11.7l-3.3,2l-2-3.3l3.3-2l2,3.3l11.7-7l3.7,6.1
			c0.7-4.9,1.1-9.9,1.3-14.9l-3.9,2.3L402.4,299.5z M267.3,238.9l-0.2,0.8c-17.5-6.6-35.8-11.2-54.3-13.7l0.2-0.7
			c0.6-2.3,2.9-3.7,5.2-3.1l3,0.8l5.6-22.4c0.8-3.2,4.1-5.1,7.3-4.3l28.3,7.2c3.2,0.8,5.2,4.1,4.3,7.3l-5.6,22.4l3.1,0.8
			C266.5,234.4,267.9,236.7,267.3,238.9z M341.5,356.8l-4.5-7.6l7.6-4.5l4.5,7.6l11.6-6.9l6.9,11.6l-11.6,6.9l-6.9-11.6L341.5,356.8
			z M360.4,394.9l-7-11.6l11.6-6.9l6.9,11.6L360.4,394.9z M372,378.2l-4.3-7.1l7.2-4.3l4.3,7.1L372,378.2z M388.9,307.8l-3.5-5.9
			l5.9-3.5l3.5,5.9L388.9,307.8z"/>
	</g>
	<text transform="matrix(1 0 0 1 462.4697 290.5467)" class="st2 st3 st4">cryptopunk</text>
	<text transform="matrix(1 0 0 0.7 467.9389 370.0408)" class="st2 st5 st6 st7">miner</text>
</g>
</svg>
